<?xml version="1.0" encoding="iso-8859-1"?>
<!-- Generator: Adobe Illustrator 19.0.0, SVG Export Plug-In . SVG Version: 6.00 Build 0)  -->
<svg version="1.1" id="Capa_1" xmlns="http://www.w3.org/2000/svg" xmlns:xlink="http://www.w3.org/1999/xlink" x="0px" y="0px"
	 viewBox="0 0 480 480" style="enable-background:new 0 0 480 480;" xml:space="preserve">
<g>
	<g>
		<path d="M408,288.64V88c0-48.601-39.399-88-88-88s-88,39.399-88,88v304c0,39.764-32.235,72-72,72c-39.764,0-72-32.236-72-72
			V191.36c27.517-3.992,47.947-27.555,48-55.36V48c0-4.418-3.582-8-8-8h-8V8c0-4.418-3.582-8-8-8H48c-4.418,0-8,3.582-8,8v32h-8
			c-4.418,0-8,3.582-8,8v88c0.053,27.805,20.483,51.367,48,55.36V392c0,48.601,39.399,88,88,88s88-39.399,88-88V88
			c0-39.765,32.236-72,72-72c39.765,0,72,32.235,72,72v200.64c-27.517,3.992-47.947,27.555-48,55.36v88c0,4.418,3.582,8,8,8h8v32
			c0,4.418,3.582,8,8,8h64c4.418,0,8-3.582,8-8v-32h8c4.418,0,8-3.582,8-8v-88C455.947,316.195,435.517,292.633,408,288.64z M56,16
			h48v24H56V16z M40,136V56h80v80c0,22.091-17.909,40-40,40S40,158.091,40,136z M424,464h-48v-24h48V464z M440,424h-80v-80
			c0-22.091,17.909-40,40-40c22.091,0,40,17.909,40,40V424z"/>
	</g>
</g>
<g>
</g>
<g>
</g>
<g>
</g>
<g>
</g>
<g>
</g>
<g>
</g>
<g>
</g>
<g>
</g>
<g>
</g>
<g>
</g>
<g>
</g>
<g>
</g>
<g>
</g>
<g>
</g>
<g>
</g>
</svg>
